<?xml version="1.0" encoding="UTF-8"?>
<svg version="1.1" xmlns="http://www.w3.org/2000/svg" width="402" height="131">
<path d="M0 0 C1.14672684 -0.00315216 2.29345367 -0.00630432 3.47492981 -0.009552 C5.33718452 -0.00651566 5.33718452 -0.00651566 7.23706055 -0.00341797 C8.530811 -0.00437469 9.82456146 -0.00533142 11.15751648 -0.00631714 C13.90889674 -0.00779295 16.6602446 -0.00564988 19.41162109 -0.00097656 C22.86500822 0.004615 26.31831667 0.00139442 29.77170086 -0.00438976 C42.63371699 -0.0229841 55.4951148 0.02170976 68.3503418 0.47705078 C69.26612503 0.50270111 70.18190826 0.52835144 71.1254425 0.55477905 C79.53947121 0.91372106 86.032913 3.02354301 92.2487793 8.98876953 C99.88378712 18.16546163 99.73818819 28.76014975 99.6394043 40.08251953 C99.63633841 41.63034887 99.63446861 43.17818099 99.63372803 44.72601318 C99.6291452 47.96035441 99.61480493 51.19444388 99.5925293 54.42871094 C99.56434441 58.53792569 99.55332388 62.64694241 99.5488472 66.75624466 C99.54364381 70.71919417 99.52914426 74.68209614 99.5144043 78.64501953 C99.51252357 79.38291969 99.51064285 80.12081985 99.50870514 80.88108063 C99.40836253 111.36763975 99.40836253 111.36763975 91.44799805 120.19580078 C85.0467674 126.14956676 78.99283454 128.5918181 70.27148438 128.51757812 C69.49969849 128.52283508 68.7279126 128.52809204 67.93273926 128.5335083 C65.39855281 128.54663676 62.86500267 128.53799152 60.33081055 128.52783203 C58.55352153 128.52985586 56.77623333 128.53276986 54.99894714 128.53652954 C51.27770058 128.5409441 47.55667053 128.53455371 43.83544922 128.52050781 C39.09593455 128.50347889 34.356932 128.51322254 29.61743641 128.5312252 C25.94624578 128.54214004 22.27517359 128.53858061 18.60397911 128.53084183 C16.85830307 128.52885777 15.11261584 128.53123511 13.3669529 128.53828049 C-12.31934838 128.61916133 -12.31934838 128.61916133 -20.2512207 120.75439453 C-21.03625977 120.00416016 -21.82129883 119.25392578 -22.63012695 118.48095703 C-27.20573137 113.25417552 -28.12837981 109.30167229 -28.0769043 102.42700195 C-28.08216125 101.56130081 -28.08741821 100.69559967 -28.09283447 99.80366516 C-28.10601708 96.94721324 -28.0973002 94.09132071 -28.0871582 91.23486328 C-28.08917999 89.24335117 -28.0920923 87.25183978 -28.09585571 85.2603302 C-28.10027718 81.08664907 -28.0938557 76.91316066 -28.07983398 72.73950195 C-28.06277563 67.4031822 -28.07256324 62.06731626 -28.09055138 56.7310133 C-28.10142243 52.6173413 -28.09792706 48.50377579 -28.090168 44.39010048 C-28.08817344 42.42341368 -28.090599 40.45671706 -28.09760666 38.49004173 C-28.1052721 35.73309336 -28.09354446 32.97686577 -28.0769043 30.2199707 C-28.08297699 29.41502167 -28.08904968 28.61007263 -28.0953064 27.7807312 C-28.0088398 20.00187695 -25.81292365 13.53789875 -20.5012207 7.73486328 C-14.42859312 2.35587635 -8.00566064 0.00633502 0 0 Z M-2.98950195 28.48486328 C-13.86804427 41.3711215 -16.94132864 55.65946046 -15.6887207 72.12939453 C-13.76837242 85.81389323 -6.85556049 96.92061137 3.3112793 106.12939453 C13.27229724 113.24626263 22.8638848 116.71248595 35.0612793 116.62939453 C36.50881592 116.62190186 36.50881592 116.62190186 37.9855957 116.61425781 C49.58897805 116.33210278 58.48449899 112.73523698 67.3112793 105.12939453 C67.91069336 104.66017578 68.51010742 104.19095703 69.12768555 103.70751953 C70.56838288 102.57100655 71.94732531 101.35695312 73.3112793 100.12939453 C73.3112793 99.46939453 73.3112793 98.80939453 73.3112793 98.12939453 C73.9712793 98.12939453 74.6312793 98.12939453 75.3112793 98.12939453 C84.61384165 84.6799068 87.94160347 71.03373067 86.0378418 54.79736328 C85.59827861 52.8276226 85.01737595 51.02085552 84.3112793 49.12939453 C83.96967773 48.18451172 83.62807617 47.23962891 83.27612305 46.26611328 C80.75706043 39.7619098 77.91332111 34.36847316 73.3112793 29.12939453 C72.76084961 28.46294922 72.21041992 27.79650391 71.64331055 27.10986328 C64.90856333 19.59968675 53.55343653 13.04325705 43.3112793 12.12939453 C25.13084184 11.27895827 10.16206335 15.02069711 -2.98950195 28.48486328 Z " fill="#7C95F9" transform="translate(27.688720703125,1.87060546875)"/>
<path d="M0 0 C1.9375 1.625 1.9375 1.625 3 4 C2.875 7.125 2.875 7.125 2 10 C1.01 10.66 0.02 11.32 -1 12 C-1 12.99 -1 13.98 -1 15 C2.84819133 12.25129191 5.32347458 9.38741815 7.88671875 5.48828125 C9 4 9 4 11 3 C16.38910749 2.62833741 19.91270551 3.17719976 24.83984375 5.2734375 C28.16800562 6.39285542 31.50691185 6.51561541 34.99609375 6.69140625 C35.65738281 6.79324219 36.31867188 6.89507812 37 7 C37.495 7.99 37.495 7.99 38 9 C37.05016642 10.50539661 36.08988109 12.00420347 35.125 13.5 C34.59132813 14.3353125 34.05765625 15.170625 33.5078125 16.03125 C33.01023437 16.6809375 32.51265625 17.330625 32 18 C31.34 18 30.68 18 30 18 C30 18.66 30 19.32 30 20 C19.20547945 25.89041096 19.20547945 25.89041096 12.625 24.0625 C11.325625 23.5365625 11.325625 23.5365625 10 23 C9.896875 24.0725 9.79375 25.145 9.6875 26.25 C8.99354619 30.0352026 8.31687958 31.12706932 6 34 C4.28781176 38.28047061 3.54812427 42.43229775 3 47 C2.34 47 1.68 47 1 47 C1.495 50.465 1.495 50.465 2 54 C1.34 54 0.68 54 0 54 C0.495 57.465 0.495 57.465 1 61 C0.01 61.495 0.01 61.495 -1 62 C-1.46751788 64.35599235 -1.46751788 64.35599235 -1.625 67.0625 C-1.69976562 67.98160156 -1.77453125 68.90070313 -1.8515625 69.84765625 C-1.90054688 70.55792969 -1.94953125 71.26820312 -2 72 C-2.99 71.67 -3.98 71.34 -5 71 C-5 67.7 -5 64.4 -5 61 C-5.66 61 -6.32 61 -7 61 C-6.979375 60.030625 -6.95875 59.06125 -6.9375 58.0625 C-6.64381501 55.12534105 -6.64381501 55.12534105 -8 54 C-7.979375 53.05125 -7.95875 52.1025 -7.9375 51.125 C-7.72305197 47.83264113 -7.72305197 47.83264113 -10 45 C-10 43.33333333 -10 41.66666667 -10 40 C-10.9688317 36.85129699 -12.18037391 34.75065959 -14.125 32.0625 C-16.20242988 28.66936452 -16.37123008 26.89791588 -16 23 C-16.66 23.33 -17.32 23.66 -18 24 C-23.2559756 24.52387992 -27.62864669 24.71107208 -32.375 22.25 C-33.24125 21.5075 -34.1075 20.765 -35 20 C-35.94875 19.319375 -36.8975 18.63875 -37.875 17.9375 C-38.57625 17.298125 -39.2775 16.65875 -40 16 C-40 15.01 -40 14.02 -40 13 C-40.66 13 -41.32 13 -42 13 C-44 10 -44 10 -44 7 C-43.07380859 6.94392578 -43.07380859 6.94392578 -42.12890625 6.88671875 C-37.62977781 6.53747134 -33.62060863 6.0083011 -29.375 4.4375 C-24.94083841 2.86282424 -21.70435048 2.37275327 -17 3 C-13.88866873 5.36731727 -12.34577765 7.10504609 -10.9375 10.75 C-10.628125 11.4925 -10.31875 12.235 -10 13 C-7.95894361 13.88693303 -7.95894361 13.88693303 -6 14 C-6.309375 13.484375 -6.61875 12.96875 -6.9375 12.4375 C-8.32854335 9.24628291 -8.81059531 6.47241937 -9 3 C-6.94766871 -0.74248646 -3.94768101 -0.57570348 0 0 Z M-2 29 C-1 31 -1 31 -1 31 Z M-2 54 C-1 56 -1 56 -1 56 Z " fill="#5674F2" transform="translate(66,38)"/>
<path d="M0 0 C3.96 0 7.92 0 12 0 C12 0.99 12 1.98 12 3 C11.34 3 10.68 3 10 3 C10 6.96 10 10.92 10 15 C12.64 15 15.28 15 18 15 C18 11.04 18 7.08 18 3 C17.34 3 16.68 3 16 3 C16 2.01 16 1.02 16 0 C19.96 0 23.92 0 28 0 C28 0.99 28 1.98 28 3 C27.34 3 26.68 3 26 3 C26 11.91 26 20.82 26 30 C26.99 30 27.98 30 29 30 C29 30.66 29 31.32 29 32 C24.71 32 20.42 32 16 32 C16 31.34 16 30.68 16 30 C16.66 30 17.32 30 18 30 C18 25.71 18 21.42 18 17 C15.69 17.33 13.38 17.66 11 18 C10.67 21.96 10.34 25.92 10 30 C10.99 30.33 11.98 30.66 13 31 C13 31.33 13 31.66 13 32 C8.38 32 3.76 32 -1 32 C-0.01 30.515 -0.01 30.515 1 29 C1.36844508 26.1913957 1.36844508 26.1913957 1.4140625 23.01953125 C1.45273438 21.85615234 1.49140625 20.69277344 1.53125 19.49414062 C1.5621875 18.27919922 1.593125 17.06425781 1.625 15.8125 C1.66367188 14.58595703 1.70234375 13.35941406 1.7421875 12.09570312 C1.83656103 9.06395344 1.92214549 6.03221159 2 3 C1.01 2.67 0.02 2.34 -1 2 C-0.67 1.34 -0.34 0.68 0 0 Z " fill="#5372F5" transform="translate(138,48)"/>
<path d="M0 0 C6.39655172 -0.36206897 6.39655172 -0.36206897 8.875 1.125 C10.40430823 3.67384706 10.67470941 6.07238473 11 9 C11.70125 8.773125 12.4025 8.54625 13.125 8.3125 C16.94350585 7.89744502 18.77971933 8.9962698 22 11 C24.52775351 14.79163027 24.22443035 17.80874031 24.125 22.1875 C24.11597656 22.93708984 24.10695313 23.68667969 24.09765625 24.45898438 C24.07412578 26.30612654 24.03825561 28.15310412 24 30 C24.66 30 25.32 30 26 30 C26 30.66 26 31.32 26 32 C24.54257537 32.08096803 23.08387193 32.13917774 21.625 32.1875 C20.81289063 32.22230469 20.00078125 32.25710937 19.1640625 32.29296875 C18.44992187 32.19628906 17.73578125 32.09960938 17 32 C14.51955685 28.27933528 14.55618827 25.13459526 14.375 20.8125 C14.33632813 20.06291016 14.29765625 19.31332031 14.2578125 18.54101562 C14.16371784 16.69440801 14.08077681 14.8472381 14 13 C13.01 13 12.02 13 11 13 C10.67 18.61 10.34 24.22 10 30 C10.66 30 11.32 30 12 30 C12 30.66 12 31.32 12 32 C7.71 32 3.42 32 -1 32 C-0.67 31.34 -0.34 30.68 0 30 C0.08530092 28.00285785 0.107159 26.00284664 0.09765625 24.00390625 C0.09443359 22.80572266 0.09121094 21.60753906 0.08789062 20.37304688 C0.07951172 19.11556641 0.07113281 17.85808594 0.0625 16.5625 C0.05573242 14.68208008 0.05573242 14.68208008 0.04882812 12.76367188 C0.04008114 10.43822292 0.02929127 8.11278019 0.01586914 5.78735352 C0.0048863 3.85825969 0 1.92912509 0 0 Z " fill="#5771E4" transform="translate(255,48)"/>
<path d="M0 0 C3.63 0 7.26 0 11 0 C10.67 0.99 10.34 1.98 10 3 C9.01 3.33 8.02 3.66 7 4 C7.804375 4.2475 8.60875 4.495 9.4375 4.75 C12 6 12 6 12.8125 8.125 C12.874375 8.74375 12.93625 9.3625 13 10 C14.258125 9.814375 15.51625 9.62875 16.8125 9.4375 C19.82744268 8.99267239 21.00468461 9.00156154 24 10 C24 19.57 24 29.14 24 39 C22.515 38.505 22.515 38.505 21 38 C21 38.66 21 39.32 21 40 C19.515 39.505 19.515 39.505 18 39 C18.20625 38.401875 18.4125 37.80375 18.625 37.1875 C19.30671915 34.71549154 19.30671915 34.71549154 17 32 C16.855625 31.154375 16.71125 30.30875 16.5625 29.4375 C16.21178049 26.64573325 16.21178049 26.64573325 13 25 C12.56867485 20.94554358 12.69980639 19.45029042 15 16 C11.63815758 13.61869495 8.93064195 14.01918425 4.97265625 14.640625 C2.64145352 15.06531936 0.31501346 15.49359081 -2 16 C-2.33 15.34 -2.66 14.68 -3 14 C-2.360625 13.79375 -1.72125 13.5875 -1.0625 13.375 C1.34925077 12.10461791 1.34925077 12.10461791 1.75 8.875 C1.8325 7.92625 1.915 6.9775 2 6 C1.01 6 0.02 6 -1 6 C-1 5.01 -1 4.02 -1 3 C-0.34 2.67 0.32 2.34 1 2 C0.67 1.34 0.34 0.68 0 0 Z " fill="#5274F8" transform="translate(39,43)"/>
<path d="M0 0 C3.07962414 2.94787551 3.94612266 4.48008364 4.390625 8.76953125 C4.36431837 10.11774585 4.31701804 11.46569518 4.25 12.8125 C4.23195312 13.50537109 4.21390625 14.19824219 4.1953125 14.91210938 C4.14851064 16.60867664 4.07677624 18.30452476 4 20 C4.66 20 5.32 20 6 20 C6 20.66 6 21.32 6 22 C2.33333333 22 -1.33333333 22 -5 22 C-5.33 22.33 -5.66 22.66 -6 23 C-10.02930507 23.38743318 -12.36122164 23.35336675 -15.9375 21.375 C-18 19 -18 19 -18.4375 15.9375 C-18 13 -18 13 -16 10 C-13.3984375 9.48828125 -13.3984375 9.48828125 -10.375 9.3125 C-8.87066406 9.21388672 -8.87066406 9.21388672 -7.3359375 9.11328125 C-6.17964844 9.05720703 -6.17964844 9.05720703 -5 9 C-5.77030122 5.51190809 -5.77030122 5.51190809 -7 2 C-7.99 1.67 -8.98 1.34 -10 1 C-10 3.31 -10 5.62 -10 8 C-12.97 7.505 -12.97 7.505 -16 7 C-16.125 4.125 -16.125 4.125 -16 1 C-11.55735088 -3.44264912 -5.35531559 -2.22296119 0 0 Z M-9 12 C-9 14.64 -9 17.28 -9 20 C-6.96758273 19.36020151 -6.96758273 19.36020151 -5 18 C-4.18828772 15.44480079 -4.18828772 15.44480079 -4 13 C-5.65 12.67 -7.3 12.34 -9 12 Z " fill="#5F78DA" transform="translate(212,58)"/>
<path d="M0 0 C0.99 -0.33 1.98 -0.66 3 -1 C4 0 4 0 4.09765625 2.06640625 C4.08605469 2.89011719 4.07445312 3.71382812 4.0625 4.5625 C4.05347656 5.38878906 4.04445313 6.21507812 4.03515625 7.06640625 C4.02355469 7.70449219 4.01195312 8.34257813 4 9 C3.01 9 2.02 9 1 9 C0.360625 8.030625 -0.27875 7.06125 -0.9375 6.0625 C-2.66894565 2.96108819 -2.66894565 2.96108819 -5.0625 1.9375 C-7.09020726 1.81897578 -7.09020726 1.81897578 -8.6875 3.25 C-11.52205472 7.0294063 -11.13393664 10.82625132 -11.125 15.375 C-11.12757813 16.68210937 -11.13015625 17.98921875 -11.1328125 19.3359375 C-11.0224678 22.38015313 -10.71706674 25.05205898 -10 28 C-4.78392589 28.50100323 -4.78392589 28.50100323 -0.125 26.75 C1.07323197 24.88608361 2.09356523 23.0220468 3 21 C3.66 21 4.32 21 5 21 C4.81037036 25.07703716 4.21550125 26.75217356 1.5 29.875 C-1.84382198 32.37279473 -4.7970848 32.60959792 -8.890625 32.35546875 C-13.11202747 31.64408426 -15.3100943 29.72932888 -18.1875 26.6875 C-22.33508121 20.5376382 -22.20738249 15.97772622 -20.828125 8.8515625 C-19.38868094 3.89498627 -17.11980829 1.19578929 -12.5625 -1.375 C-7.65209357 -2.57266011 -4.43069965 -2.2917412 0 0 Z " fill="#5371F7" transform="translate(304,49)"/>
<path d="M0 0 C3.00197464 1.80118478 4.45166366 2.90332732 6 6 C6.0716735 8.55157655 6.09308442 11.07472971 6.0625 13.625 C6.05798828 14.33140625 6.05347656 15.0378125 6.04882812 15.765625 C6.03703875 17.51045275 6.01910324 19.255237 6 21 C6.99 21.33 7.98 21.66 9 22 C9 22.33 9 22.66 9 23 C8.22914063 22.98839844 7.45828125 22.97679688 6.6640625 22.96484375 C5.66117187 22.95582031 4.65828125 22.94679688 3.625 22.9375 C2.12839844 22.92009766 2.12839844 22.92009766 0.6015625 22.90234375 C-1.98432453 22.81993398 -1.98432453 22.81993398 -4 24 C-8.04600418 24.38169851 -10.34805889 24.36064827 -13.9375 22.375 C-16 20 -16 20 -16.4375 16.9375 C-16 14 -16 14 -14 11 C-11.3984375 10.26953125 -11.3984375 10.26953125 -8.375 9.8125 C-7.37210937 9.65394531 -6.36921875 9.49539062 -5.3359375 9.33203125 C-4.56507813 9.22246094 -3.79421875 9.11289063 -3 9 C-3.33 7.02 -3.66 5.04 -4 3 C-5.32 2.67 -6.64 2.34 -8 2 C-8 4.31 -8 6.62 -8 9 C-12.875 8.125 -12.875 8.125 -14 7 C-14.25 4.5625 -14.25 4.5625 -14 2 C-9.55139766 -0.9657349 -5.21856465 -0.64087636 0 0 Z M-7 13 C-7.93065133 15.60582371 -8.14917407 16.64198224 -7.0625 19.25 C-6.711875 19.8275 -6.36125 20.405 -6 21 C-5.01 20.67 -4.02 20.34 -3 20 C-3 17.69 -3 15.38 -3 13 C-4.32 13 -5.64 13 -7 13 Z " fill="#5271F9" transform="translate(327,57)"/>
<path d="M0 0 C3.3125 2.0625 3.3125 2.0625 6 5 C6.875 8.8125 6.875 8.8125 7 12 C3.83759418 14.10827055 2.49342531 14.33817465 -1.1875 14.625 C-2.08855469 14.69976562 -2.98960937 14.77453125 -3.91796875 14.8515625 C-4.60503906 14.90054688 -5.29210937 14.94953125 -6 15 C-5.67 17.31 -5.34 19.62 -5 22 C0.40787385 20.90213575 0.40787385 20.90213575 4 17 C4.66 17 5.32 17 6 17 C5.68762196 19.88949684 5.35661121 21.58633099 3.4375 23.8125 C-1.24487946 26.09365922 -5.51650207 25.44784843 -10.3125 24 C-14.0361774 21.22889124 -15.1476259 18.50310847 -16 14 C-16.27537249 10.43327067 -16.07697682 7.2988019 -13.69140625 4.421875 C-9.40050408 0.69809955 -5.61446045 -0.66052476 0 0 Z M-5 3 C-5.33 3.66 -5.66 4.32 -6 5 C-5.01 5 -4.02 5 -3 5 C-3 4.34 -3 3.68 -3 3 C-3.66 3 -4.32 3 -5 3 Z M-3 5 C-3 5.66 -3 6.32 -3 7 C-4.32 7.33 -5.64 7.66 -7 8 C-6.67 9.32 -6.34 10.64 -6 12 C-4.01508358 11.73323796 -4.01508358 11.73323796 -2 11 C-1.67 10.01 -1.34 9.02 -1 8 C-1.66 7.01 -2.32 6.02 -3 5 Z " fill="#5473EE" transform="translate(374,56)"/>
<path d="M0 0 C2.20027268 1.89467925 3.70197611 3.40395221 5 6 C5.039992 7.99960012 5.04346799 10.00047242 5 12 C1.98509443 13.00496852 -0.04181692 13.10335303 -3.1875 13.0625 C-4.08855469 13.05347656 -4.98960937 13.04445313 -5.91796875 13.03515625 C-6.60503906 13.02355469 -7.29210937 13.01195313 -8 13 C-7.34 15.31 -6.68 17.62 -6 20 C-3.62625139 20.33425735 -3.62625139 20.33425735 -1 20 C0.70532323 18.05990478 0.70532323 18.05990478 2 16 C2.66 16 3.32 16 4 16 C3.68762196 18.88949684 3.35661121 20.58633099 1.4375 22.8125 C-2.02963337 24.50161626 -5.25527213 24.55201168 -9 24 C-12.74441402 22.33581599 -14.82210313 20.43814056 -17 17 C-17.88953655 12.14361126 -17.43737045 8.02053106 -15.5 3.5 C-11.35152916 -0.64847084 -5.62644157 -2.18806061 0 0 Z M-7 2 C-8.20561184 2.98267859 -8.20561184 2.98267859 -8.09765625 4.84765625 C-8.08605469 5.57855469 -8.07445312 6.30945312 -8.0625 7.0625 C-8.041875 8.361875 -8.02125 9.66125 -8 11 C-6.01508358 10.73323796 -6.01508358 10.73323796 -4 10 C-2.7922442 6.37673261 -3.45688872 5.35853631 -5 2 C-5.66 2 -6.32 2 -7 2 Z " fill="#5D72D5" transform="translate(187,57)"/>
<path d="M0 0 C7.48207132 -0.36797072 7.48207132 -0.36797072 9.59790039 1.13525391 C11.59850001 3.79598521 11.41717711 5.82480934 11.4765625 9.12890625 C11.5075 10.32837891 11.5384375 11.52785156 11.5703125 12.76367188 C11.59738281 14.6440918 11.59738281 14.6440918 11.625 16.5625 C11.675857 19.04305024 11.73035536 21.52352938 11.7890625 24.00390625 C11.80662598 25.10549072 11.82418945 26.2070752 11.84228516 27.34204102 C11.82361368 29.97510161 11.82361368 29.97510161 13 32 C8.71 32 4.42 32 0 32 C0 31.34 0 30.68 0 30 C0.66 30 1.32 30 2 30 C2 21.09 2 12.18 2 3 C1.34 3 0.68 3 0 3 C0 2.01 0 1.02 0 0 Z " fill="#5372FA" transform="translate(220,48)"/>
<path d="M0 0 C1.4540625 0.0309375 1.4540625 0.0309375 2.9375 0.0625 C2.9375 2.0425 2.9375 4.0225 2.9375 6.0625 C4.9175 6.0625 6.8975 6.0625 8.9375 6.0625 C8.9375 7.0525 8.9375 8.0425 8.9375 9.0625 C6.9575 9.0625 4.9775 9.0625 2.9375 9.0625 C3.2675 15.0025 3.5975 20.9425 3.9375 27.0625 C7.97128366 26.55269039 7.97128366 26.55269039 9.1875 24 C9.435 23.360625 9.6825 22.72125 9.9375 22.0625 C10.5975 22.3925 11.2575 22.7225 11.9375 23.0625 C11.625 25.4375 11.625 25.4375 10.9375 28.0625 C7.2001144 30.5540904 5.36418417 30.52043285 0.9375 30.0625 C-1.81579021 28.26687595 -3.58877461 27.00995078 -5.0625 24.0625 C-5.1341735 21.51092345 -5.15558442 18.98777029 -5.125 16.4375 C-5.12048828 15.73109375 -5.11597656 15.0246875 -5.11132812 14.296875 C-5.09953875 12.55204725 -5.08160324 10.807263 -5.0625 9.0625 C-6.0525 8.7325 -7.0425 8.4025 -8.0625 8.0625 C-7.7325 7.4025 -7.4025 6.7425 -7.0625 6.0625 C-6.4025 6.0625 -5.7425 6.0625 -5.0625 6.0625 C-4.918125 5.258125 -4.77375 4.45375 -4.625 3.625 C-3.8465 0.0785 -3.8465 0.0785 0 0 Z " fill="#5171FB" transform="translate(241.0625,50.9375)"/>
<path d="M0 0 C6.625 -0.25 6.625 -0.25 10 2 C10.66 1.34 11.32 0.68 12 0 C15.1642235 -0.33661952 17.18513382 -0.49943411 19.9375 1.1875 C21 3 21 3 20.6875 5.6875 C20.460625 6.450625 20.23375 7.21375 20 8 C18.35 8.33 16.7 8.66 15 9 C14.67 7.35 14.34 5.7 14 4 C13.34 4 12.68 4 12 4 C11.97309896 6.79173055 11.95320947 9.58320348 11.9375 12.375 C11.92912109 13.1690625 11.92074219 13.963125 11.91210938 14.78125 C11.76959849 19.02392222 11.76959849 19.02392222 13 23 C8.71 23 4.42 23 0 23 C0 22.34 0 21.68 0 21 C0.66 21 1.32 21 2 21 C1.85924795 18.06217531 1.7126162 15.12484829 1.5625 12.1875 C1.52318359 11.35412109 1.48386719 10.52074219 1.44335938 9.66210938 C1.40146484 8.85966797 1.35957031 8.05722656 1.31640625 7.23046875 C1.26141968 6.12288208 1.26141968 6.12288208 1.20532227 4.99291992 C1.05157859 2.792505 1.05157859 2.792505 0 0 Z " fill="#5273FA" transform="translate(337,57)"/>
<path d="M0 0 C0.66 0 1.32 0 2 0 C2.33 0.66 2.66 1.32 3 2 C5.32156597 2.40729228 7.6568787 2.74438677 10 3 C10 3.99 10 4.98 10 6 C10.99 6.33 11.98 6.66 13 7 C12.01 7.495 12.01 7.495 11 8 C10.34786708 10.02463255 10.34786708 10.02463255 10 12 C9.01 12 8.02 12 7 12 C7 12.99 7 13.98 7 15 C3.37 15 -0.26 15 -4 15 C-3.01 15.99 -2.02 16.98 -1 18 C-2.875 21.875 -2.875 21.875 -4 23 C-6.33944736 22.71269945 -8.6739143 22.38063221 -11 22 C-11.33 22.66 -11.66 23.32 -12 24 C-12 23.01 -12 22.02 -12 21 C-11.34 21 -10.68 21 -10 21 C-10 17.7 -10 14.4 -10 11 C-9.01 10.67 -8.02 10.34 -7 10 C-6.34 9.01 -5.68 8.02 -5 7 C-4.34 7 -3.68 7 -3 7 C-2.87625 6.21625 -2.7525 5.4325 -2.625 4.625 C-2 2 -2 2 0 0 Z " fill="#5070FA" transform="translate(76,43)"/>
<path d="M0 0 C7 1 7 1 8 2 C8.08767112 4.07262076 8.10695873 6.14820294 8.09765625 8.22265625 C8.09443359 9.48271484 8.09121094 10.74277344 8.08789062 12.04101562 C8.07953403 13.38151109 8.07106907 14.72200588 8.0625 16.0625 C8.0574866 17.40689942 8.05292342 18.7513006 8.04882812 20.09570312 C8.03699488 23.39717941 8.02050971 26.69856803 8 30 C5.69 30 3.38 30 1 30 C0.67 20.1 0.34 10.2 0 0 Z " fill="#5373FB" transform="translate(256,49)"/>
<path d="M0 0 C0.99 -0.33 1.98 -0.66 3 -1 C4 0 4 0 4.09765625 2.06640625 C4.08605469 2.89011719 4.07445312 3.71382812 4.0625 4.5625 C4.05347656 5.38878906 4.04445313 6.21507812 4.03515625 7.06640625 C4.02355469 7.70449219 4.01195312 8.34257813 4 9 C3.01 9 2.02 9 1 9 C0.360625 8.030625 -0.27875 7.06125 -0.9375 6.0625 C-2.66894565 2.96108819 -2.66894565 2.96108819 -5.0625 1.9375 C-7.09020726 1.81897578 -7.09020726 1.81897578 -8.6875 3.25 C-11.52205472 7.0294063 -11.13393664 10.82625132 -11.125 15.375 C-11.12757813 16.68210937 -11.13015625 17.98921875 -11.1328125 19.3359375 C-11.0224678 22.38015313 -10.71706674 25.05205898 -10 28 C-4.78392589 28.50100323 -4.78392589 28.50100323 -0.125 26.75 C1.07323197 24.88608361 2.09356523 23.0220468 3 21 C3.66 21 4.32 21 5 21 C4.80839429 25.11952267 4.22298348 26.74982341 1.4375 29.875 C-2.29186575 32.71512526 -5.45500657 32.39180978 -10 32 C-10.33 30.35 -10.66 28.7 -11 27 C-11.66 27 -12.32 27 -13 27 C-13.02908357 23.58335127 -13.04682691 20.1667345 -13.0625 16.75 C-13.07087891 15.78191406 -13.07925781 14.81382813 -13.08789062 13.81640625 C-13.09111328 12.88183594 -13.09433594 11.94726562 -13.09765625 10.984375 C-13.10289307 10.12553711 -13.10812988 9.26669922 -13.11352539 8.38183594 C-13.00539986 6.11329256 -12.63582423 4.17368285 -12 2 C-14.99332739 2.9977758 -15.94766315 3.7522025 -18 6 C-18 3 -18 3 -16.8125 1.4375 C-11.43907205 -2.82418424 -5.95290937 -3.07909105 0 0 Z " fill="#5A73D4" transform="translate(304,49)"/>
<path d="M0 0 C3.63 0 7.26 0 11 0 C10.67 0.99 10.34 1.98 10 3 C9.01 3.33 8.02 3.66 7 4 C7.804375 4.2475 8.60875 4.495 9.4375 4.75 C12 6 12 6 12.8125 8.125 C12.874375 8.74375 12.93625 9.3625 13 10 C15.64 9.67 18.28 9.34 21 9 C20.67 10.32 20.34 11.64 20 13 C18.824375 13.2165625 18.824375 13.2165625 17.625 13.4375 C15.03578982 13.87798925 15.03578982 13.87798925 13 15 C12.154375 14.814375 11.30875 14.62875 10.4375 14.4375 C5.96185035 13.86787186 2.31292553 14.84030225 -2 16 C-2.33 15.34 -2.66 14.68 -3 14 C-2.360625 13.79375 -1.72125 13.5875 -1.0625 13.375 C1.34925077 12.10461791 1.34925077 12.10461791 1.75 8.875 C1.8325 7.92625 1.915 6.9775 2 6 C1.01 6 0.02 6 -1 6 C-1 5.01 -1 4.02 -1 3 C-0.34 2.67 0.32 2.34 1 2 C0.67 1.34 0.34 0.68 0 0 Z " fill="#5071F9" transform="translate(39,43)"/>
<path d="M0 0 C2.49361571 1.20381448 4.68143083 2.45428722 7 4 C7.22137393 6.62697064 7.28162025 9.00893964 7.1875 11.625 C7.17396484 12.33140625 7.16042969 13.0378125 7.14648438 13.765625 C7.1111104 15.51074128 7.05730221 17.25546608 7 19 C7.66 19 8.32 19 9 19 C9 19.66 9 20.32 9 21 C4.07872966 21.16682272 0.49656104 21.24828052 -4 19 C-3.67 17.88625 -3.34 16.7725 -3 15.625 C-1.911357 12.30540283 -1.911357 12.30540283 -2 10 C-1.34 10 -0.68 10 0 10 C-0.08378906 9.36191406 -0.16757813 8.72382812 -0.25390625 8.06640625 C-0.35574219 7.24011719 -0.45757812 6.41382812 -0.5625 5.5625 C-0.66691406 4.73878906 -0.77132812 3.91507813 -0.87890625 3.06640625 C-0.91886719 2.38449219 -0.95882812 1.70257813 -1 1 C-0.67 0.67 -0.34 0.34 0 0 Z " fill="#5371F7" transform="translate(209,59)"/>
<path d="M0 0 C1.9375 1.625 1.9375 1.625 3 4 C2.875 7.125 2.875 7.125 2 10 C1.01 10.66 0.02 11.32 -1 12 C-1 12.99 -1 13.98 -1 15 C1.81939117 12.79020692 4.53058944 10.59937954 7 8 C7 9.32 7 10.64 7 12 C6.01 12.495 6.01 12.495 5 13 C4.01 14.485 4.01 14.485 3 16 C-0.125 16.6875 -0.125 16.6875 -3 17 C-3 16.34 -3 15.68 -3 15 C-3.66 15 -4.32 15 -5 15 C-9.83499006 7.29423459 -9.83499006 7.29423459 -9 3 C-6.74280427 -0.63659311 -4.02330328 -0.58673173 0 0 Z " fill="#5A73DE" transform="translate(66,38)"/>
<path d="M0 0 C0 1.65 0 3.3 0 5 C0.66 5 1.32 5 2 5 C2.33 3.68 2.66 2.36 3 1 C3.99 1.33 4.98 1.66 6 2 C5.34 2 4.68 2 4 2 C4.33 4.31 4.66 6.62 5 9 C4.34 9 3.68 9 3 9 C3.33 11.31 3.66 13.62 4 16 C3.34 16.33 2.68 16.66 2 17 C1.53248212 19.35599235 1.53248212 19.35599235 1.375 22.0625 C1.30023438 22.98160156 1.22546875 23.90070313 1.1484375 24.84765625 C1.09945312 25.55792969 1.05046875 26.26820312 1 27 C0.01 26.67 -0.98 26.34 -2 26 C-2 22.7 -2 19.4 -2 16 C-2.66 16 -3.32 16 -4 16 C-3.979375 15.030625 -3.95875 14.06125 -3.9375 13.0625 C-3.64381501 10.12534105 -3.64381501 10.12534105 -5 9 C-5.3125 6.6875 -5.3125 6.6875 -5 4 C-1.64864865 0 -1.64864865 0 0 0 Z M1 9 C2 11 2 11 2 11 Z " fill="#6682E7" transform="translate(63,83)"/>
<path d="M0 0 C3 3 3 3 3.29296875 6.57421875 C3.27309338 7.94561913 3.23741111 9.31686405 3.1875 10.6875 C3.16719727 11.7403418 3.16719727 11.7403418 3.14648438 12.81445312 C3.11120182 14.54329829 3.05739583 16.27174765 3 18 C3.99 18.33 4.98 18.66 6 19 C6 19.33 6 19.66 6 20 C5.22914063 19.98839844 4.45828125 19.97679688 3.6640625 19.96484375 C2.66117187 19.95582031 1.65828125 19.94679688 0.625 19.9375 C-0.87160156 19.92009766 -0.87160156 19.92009766 -2.3984375 19.90234375 C-4.98432453 19.81993398 -4.98432453 19.81993398 -7 21 C-11.04600418 21.38169851 -13.34805889 21.36064827 -16.9375 19.375 C-19 17 -19 17 -19.3125 13.75 C-19.209375 12.8425 -19.10625 11.935 -19 11 C-17 13 -17 13 -16.125 15.5625 C-15.2590293 18.18447843 -15.2590293 18.18447843 -12.875 18.8125 C-11.946875 18.9053125 -11.946875 18.9053125 -11 19 C-10.67 17.68 -10.34 16.36 -10 15 C-9.67 15.66 -9.34 16.32 -9 17 C-8.34 17 -7.68 17 -7 17 C-6.67 14.69 -6.34 12.38 -6 10 C-5.67 10.99 -5.34 11.98 -5 13 C-2.03 13.495 -2.03 13.495 1 14 C0.67 9.38 0.34 4.76 0 0 Z " fill="#5872E4" transform="translate(330,60)"/>
<path d="M0 0 C1.45855497 2.91710994 1.31249971 5.69307532 1.5 8.9375 C1.78150389 14.05809835 1.78150389 14.05809835 3 19 C0.8125 19.375 0.8125 19.375 -2 19 C-5.28260305 16.22802409 -6.80076826 14.67354663 -7.3125 10.375 C-7.3125 7.89680692 -7.21946888 5.46780567 -7 3 C-6.01 3 -5.02 3 -4 3 C-4 2.34 -4 1.68 -4 1 C-2 0 -2 0 0 0 Z " fill="#4F70F0" transform="translate(177,61)"/>
<path d="M0 0 C0.99 0 1.98 0 3 0 C3 2.97 3 5.94 3 9 C5.64 9 8.28 9 11 9 C11 10.32 11 11.64 11 13 C8.36 13 5.72 13 3 13 C3 15.97 3 18.94 3 22 C2.01 22 1.02 22 0 22 C0 19.03 0 16.06 0 13 C-2.31 13 -4.62 13 -7 13 C-7.33 11.68 -7.66 10.36 -8 9 C-5.36 9 -2.72 9 0 9 C0 6.03 0 3.06 0 0 Z " fill="#5975E0" transform="translate(391,54)"/>
<path d="M0 0 C7.48254749 -0.36799414 7.48254749 -0.36799414 9.609375 1.14453125 C11.59085277 3.78835693 11.34091143 5.70438563 11.29296875 8.98046875 C11.28330078 10.14384766 11.27363281 11.30722656 11.26367188 12.50585938 C11.23853516 13.72080078 11.21339844 14.93574219 11.1875 16.1875 C11.17396484 17.41404297 11.16042969 18.64058594 11.14648438 19.90429688 C11.11108741 22.93663664 11.0617076 25.96809996 11 29 C10.67 29 10.34 29 10 29 C9.67 21.08 9.34 13.16 9 5 C5.95912477 5.67155862 5.95912477 5.67155862 4.83837891 7.75097656 C3.89954784 10.26947154 3.68410551 12.30111594 3.5859375 14.984375 C3.54726562 15.91894531 3.50859375 16.85351562 3.46875 17.81640625 C3.4378125 18.78449219 3.406875 19.75257812 3.375 20.75 C3.33632812 21.73355469 3.29765625 22.71710938 3.2578125 23.73046875 C3.1637203 26.15334289 3.08077848 28.57664545 3 31 C5.97 30.67 8.94 30.34 12 30 C12.33 30.66 12.66 31.32 13 32 C8.71 32 4.42 32 0 32 C0 31.34 0 30.68 0 30 C0.66 30 1.32 30 2 30 C2 21.09 2 12.18 2 3 C1.34 3 0.68 3 0 3 C0 2.01 0 1.02 0 0 Z " fill="#5671D7" transform="translate(220,48)"/>
<path d="M0 0 C3.96 0 7.92 0 12 0 C12 0.99 12 1.98 12 3 C11.34 3 10.68 3 10 3 C10 11.91 10 20.82 10 30 C10.99 30 11.98 30 13 30 C13 30.66 13 31.32 13 32 C8.71 32 4.42 32 0 32 C0 31.34 0 30.68 0 30 C0.66 30 1.32 30 2 30 C2 25.71 2 21.42 2 17 C2.33 17 2.66 17 3 17 C3.33 20.63 3.66 24.26 4 28 C4.99 28 5.98 28 7 28 C7.33 28 7.66 28 8 28 C8 19.42 8 10.84 8 2 C6.35 1.67 4.7 1.34 3 1 C3 5.62 3 10.24 3 15 C2.67 15 2.34 15 2 15 C2 11.04 2 7.08 2 3 C1.34 3 0.68 3 0 3 C0 2.01 0 1.02 0 0 Z " fill="#5772E2" transform="translate(154,48)"/>
<path d="M0 0 C6.39655172 -0.36206897 6.39655172 -0.36206897 8.875 1.125 C10.40821012 3.68035019 10.6329072 6.06325764 11 9 C11.33 9.99 11.66 10.98 12 12 C11.67 12.33 11.34 12.66 11 13 C10.76298761 15.85877909 10.57780818 18.69883297 10.4375 21.5625 C10.39431641 22.36880859 10.35113281 23.17511719 10.30664062 24.00585938 C10.20024738 26.00368805 10.09959112 28.0018207 10 30 C10.66 30 11.32 30 12 30 C12 30.66 12 31.32 12 32 C7.71 32 3.42 32 -1 32 C-0.67 31.34 -0.34 30.68 0 30 C0.08530092 28.00285785 0.107159 26.00284664 0.09765625 24.00390625 C0.09443359 22.80572266 0.09121094 21.60753906 0.08789062 20.37304688 C0.07951172 19.11556641 0.07113281 17.85808594 0.0625 16.5625 C0.05573242 14.68208008 0.05573242 14.68208008 0.04882812 12.76367188 C0.04008114 10.43822292 0.02929127 8.11278019 0.01586914 5.78735352 C0.0048863 3.85825969 0 1.92912509 0 0 Z M1 1 C1.33 10.9 1.66 20.8 2 31 C4.31 31 6.62 31 9 31 C9 21.76 9 12.52 9 3 C5.1490712 0.7018576 5.1490712 0.7018576 1 1 Z " fill="#5773D3" transform="translate(255,48)"/>
<path d="M0 0 C2.875 2.5 2.875 2.5 5 5 C4.21625 4.938125 3.4325 4.87625 2.625 4.8125 C1.325625 4.9053125 1.325625 4.9053125 0 5 C-0.99 6.485 -0.99 6.485 -2 8 C-3.32 8 -4.64 8 -6 8 C-6.66 8.66 -7.32 9.32 -8 10 C-8.33 8.02 -8.66 6.04 -9 4 C-9.66 5.32 -10.32 6.64 -11 8 C-11.66 7.67 -12.32 7.34 -13 7 C-13.33 8.65 -13.66 10.3 -14 12 C-14.66 11.67 -15.32 11.34 -16 11 C-14.76141604 6.04566415 -13.27241667 3.81354269 -9 1 C-5.63633609 -0.1212213 -3.52465728 -0.42295887 0 0 Z M-5 3 C-5.33 3.66 -5.66 4.32 -6 5 C-5.01 5 -4.02 5 -3 5 C-3 4.34 -3 3.68 -3 3 C-3.66 3 -4.32 3 -5 3 Z " fill="#556DDA" transform="translate(374,56)"/>
<path d="M0 0 C1.2976239 0.54067662 2.59316346 1.08637912 3.88671875 1.63671875 C7.21488062 2.75613667 10.55378685 2.87889666 14.04296875 3.0546875 C15.03490234 3.20744141 15.03490234 3.20744141 16.046875 3.36328125 C16.376875 4.02328125 16.706875 4.68328125 17.046875 5.36328125 C16.109375 7.48828125 16.109375 7.48828125 15.046875 9.36328125 C14.386875 9.03328125 13.726875 8.70328125 13.046875 8.36328125 C13.376875 7.04328125 13.706875 5.72328125 14.046875 4.36328125 C13.43199219 4.36328125 12.81710938 4.36328125 12.18359375 4.36328125 C8.8046875 4.36328125 5.42578125 4.36328125 2.046875 4.36328125 C1.386875 5.02328125 0.726875 5.68328125 0.046875 6.36328125 C-3.12592851 5.92565318 -6.00980111 4.5896662 -8.953125 3.36328125 C-8.953125 2.70328125 -8.953125 2.04328125 -8.953125 1.36328125 C-11.428125 2.84828125 -11.428125 2.84828125 -13.953125 4.36328125 C-11.24289195 -1.63794908 -5.99573091 -1.95460828 0 0 Z " fill="#5776F4" transform="translate(86.953125,41.63671875)"/>
<path d="M0 0 C0.33 0 0.66 0 1 0 C1 4.62 1 9.24 1 14 C3.31 14.33 5.62 14.66 8 15 C8.33 14.34 8.66 13.68 9 13 C9 14.65 9 16.3 9 18 C10.94999129 17.80528889 10.94999129 17.80528889 13 17 C14.28436734 15.0162233 14.28436734 15.0162233 15 13 C15.66 13.33 16.32 13.66 17 14 C16.6875 16.375 16.6875 16.375 16 19 C12.2626144 21.4915904 10.42668417 21.45793285 6 21 C3.24670979 19.20437595 1.47372539 17.94745078 0 15 C-0.0716735 12.44842345 -0.09308442 9.92527029 -0.0625 7.375 C-0.05798828 6.66859375 -0.05347656 5.9621875 -0.04882812 5.234375 C-0.03703875 3.48954725 -0.01910324 1.744763 0 0 Z " fill="#5570DF" transform="translate(236,60)"/>
<path d="M0 0 C6.32352941 2.52941176 6.32352941 2.52941176 8 5 C8.1875 8.1875 8.1875 8.1875 8 11 C4.52674819 12.1577506 1.63932552 12.06866652 -2 12 C-1.34 8.04 -0.68 4.08 0 0 Z " fill="#5574F4" transform="translate(184,58)"/>
<path d="M0 0 C1.9375 1.1875 1.9375 1.1875 3 3 C2.6875 5.6875 2.6875 5.6875 2 8 C0.35 8.33 -1.3 8.66 -3 9 C-3.33 7.35 -3.66 5.7 -4 4 C-4.66 4 -5.32 4 -6 4 C-6.33 8.62 -6.66 13.24 -7 18 C-7.33 18 -7.66 18 -8 18 C-8 13.38 -8 8.76 -8 4 C-8.66 4 -9.32 4 -10 4 C-7.79220745 -0.41558511 -4.44543747 -0.4630664 0 0 Z " fill="#5770E4" transform="translate(355,57)"/>
<path d="M0 0 C1.32 0.66 2.64 1.32 4 2 C3.60167969 2.61746094 3.20335937 3.23492187 2.79296875 3.87109375 C-2.6027419 12.49635384 -6.15790739 20.99783659 -6.09765625 31.30078125 C-6.09443359 32.27724609 -6.09121094 33.25371094 -6.08789062 34.25976562 C-6.07951172 35.26716797 -6.07113281 36.27457031 -6.0625 37.3125 C-6.05798828 38.33923828 -6.05347656 39.36597656 -6.04882812 40.42382812 C-6.03708184 42.94927882 -6.02065565 45.47460905 -6 48 C-9.24517358 42.66512519 -8.32819456 36.47990702 -8.3125 30.4375 C-8.32861328 29.19291016 -8.34472656 27.94832031 -8.36132812 26.66601562 C-8.36197266 25.47556641 -8.36261719 24.28511719 -8.36328125 23.05859375 C-8.36626221 21.96861084 -8.36924316 20.87862793 -8.37231445 19.75561523 C-7.94927268 16.62455127 -7.3433164 15.97586783 -5 14 C-3.74458379 10.72196879 -2.78890849 7.41860347 -2 4 C-1.34 4 -0.68 4 0 4 C0 2.68 0 1.36 0 0 Z " fill="#798BD8" transform="translate(19,32)"/>
<path d="M0 0 C0.9590625 -0.01675781 1.918125 -0.03351562 2.90625 -0.05078125 C5.84780511 0.36121367 6.70423739 1.01319585 8.5 3.3125 C7.18 2.9825 5.86 2.6525 4.5 2.3125 C4.17 4.2925 3.84 6.2725 3.5 8.3125 C3.17 8.3125 2.84 8.3125 2.5 8.3125 C2.17 6.6625 1.84 5.0125 1.5 3.3125 C0.18 2.9825 -1.14 2.6525 -2.5 2.3125 C-2.5 4.6225 -2.5 6.9325 -2.5 9.3125 C-7.375 8.4375 -7.375 8.4375 -8.5 7.3125 C-8.75 4.875 -8.75 4.875 -8.5 2.3125 C-5.16602694 0.08985129 -3.90485109 0.01574537 0 0 Z " fill="#6478D6" transform="translate(321.5,56.6875)"/>
<path d="M0 0 C0.02693575 2.12493141 0.04636628 4.24995912 0.0625 6.375 C0.07410156 7.55835937 0.08570313 8.74171875 0.09765625 9.9609375 C0 13 0 13 -1 15 C-2.32 15 -3.64 15 -5 15 C-6.34004839 10.97985483 -6.727033 7.19802923 -6 3 C-2.45454545 0 -2.45454545 0 0 0 Z " fill="#5273FB" transform="translate(277,64)"/>
<path d="M0 0 C2.31 0 4.62 0 7 0 C7.33 0.66 7.66 1.32 8 2 C6.68 2 5.36 2 4 2 C4 8.27 4 14.54 4 21 C6.64 21 9.28 21 12 21 C12.33 21.66 12.66 22.32 13 23 C8.71 23 4.42 23 0 23 C0 22.34 0 21.68 0 21 C0.66 21 1.32 21 2 21 C1.85924795 18.06217531 1.7126162 15.12484829 1.5625 12.1875 C1.52318359 11.35412109 1.48386719 10.52074219 1.44335938 9.66210938 C1.40146484 8.85966797 1.35957031 8.05722656 1.31640625 7.23046875 C1.26141968 6.12288208 1.26141968 6.12288208 1.20532227 4.99291992 C1.05157859 2.792505 1.05157859 2.792505 0 0 Z " fill="#5871D3" transform="translate(337,57)"/>
<path d="M0 0 C0.99 0.33 1.98 0.66 3 1 C0.35801229 4.96298156 -1.94038632 5.3259301 -6.39453125 6.56640625 C-10.03732773 7.17262875 -12.60988405 6.35604638 -16 5 C-17.33130115 4.65864073 -18.66358148 4.32074044 -20 4 C-20 3.34 -20 2.68 -20 2 C-15.61414671 1.29826347 -11.44209357 0.89165625 -7 1 C-7 1.66 -7 2.32 -7 3 C-4.02934491 2.65772428 -4.02934491 2.65772428 -1 2 C-0.67 1.34 -0.34 0.68 0 0 Z " fill="#5376EB" transform="translate(92,56)"/>
<path d="M0 0 C3.96 0 7.92 0 12 0 C12 0.99 12 1.98 12 3 C11.34 3 10.68 3 10 3 C10 6.96 10 10.92 10 15 C9.67 15 9.34 15 9 15 C9 10.38 9 5.76 9 1 C3.84762262 3.29019596 3.84762262 3.29019596 3.34057617 6.63549805 C3.32486572 7.66715088 3.30915527 8.69880371 3.29296875 9.76171875 C3.26396484 10.87998047 3.23496094 11.99824219 3.20507812 13.15039062 C3.19927734 14.31763672 3.19347656 15.48488281 3.1875 16.6875 C3.16236328 17.86634766 3.13722656 19.04519531 3.11132812 20.25976562 C3.0523454 23.173512 3.01614629 26.08575228 3 29 C2.67 29 2.34 29 2 29 C2 20.42 2 11.84 2 3 C1.01 2.67 0.02 2.34 -1 2 C-0.67 1.34 -0.34 0.68 0 0 Z " fill="#5B75DA" transform="translate(138,48)"/>
<path d="M0 0 C0.33 0 0.66 0 1 0 C1 9.57 1 19.14 1 29 C-2.31287991 25.68712009 -2.61636593 24.50770031 -3 20 C-2.67 19.34 -2.34 18.68 -2 18 C-1.97426114 14.82676687 -2.02794706 11.66924109 -2.12695312 8.49804688 C-2.18946616 4.74358749 -2.14164494 3.2124674 0 0 Z " fill="#5B81FA" transform="translate(62,53)"/>
<path d="M0 0 C1.65 0 3.3 0 5 0 C5 3.3 5 6.6 5 10 C2.125 10.125 2.125 10.125 -1 10 C-1.66 9.34 -2.32 8.68 -3 8 C-2.625 5.375 -2.625 5.375 -2 3 C-1.34 3 -0.68 3 0 3 C0 2.01 0 1.02 0 0 Z " fill="#5171F4" transform="translate(197,69)"/>
<path d="M0 0 C-0.33 0.53625 -0.66 1.0725 -1 1.625 C-2.25954167 4.61641148 -2.34952958 6.78432784 -2 10 C-1.01 10.66 -0.02 11.32 1 12 C2.125 14.9375 2.125 14.9375 3 18 C3.33 18.99 3.66 19.98 4 21 C3.67 21.99 3.34 22.98 3 24 C3.66 24.66 4.32 25.32 5 26 C4.34 26.66 3.68 27.32 3 28 C0.7593354 24.6390031 1 23.83972856 1 20 C0.0311683 16.85129699 -1.18037391 14.75065959 -3.125 12.0625 C-5.20242988 8.66936452 -5.37123008 6.89791588 -5 3 C-5.66 3 -6.32 3 -7 3 C-7 2.34 -7 1.68 -7 1 C-4.53721199 -0.231394 -2.7204945 -0.07159196 0 0 Z " fill="#5E78E1" transform="translate(55,58)"/>
<path d="M0 0 C1.32 0.66 2.64 1.32 4 2 C4 5.63 4 9.26 4 13 C3.01 13.33 2.02 13.66 1 14 C0.690625 13.195625 0.38125 12.39125 0.0625 11.5625 C-0.76335345 9.10919595 -0.76335345 9.10919595 -2 8 C-2.04092937 5.66702567 -2.04241723 3.33294775 -2 1 C-1.34 0.67 -0.68 0.34 0 0 Z " fill="#5474FC" transform="translate(173,63)"/>
<path d="M0 0 C2.97 0 5.94 0 9 0 C9.08927756 3.21399233 8.8534403 5.9062789 8 9 C8 9.66 8 10.32 8 11 C6.68 10.34 5.36 9.68 4 9 C4 8.01 4 7.02 4 6 C3.34 6 2.68 6 2 6 C0 3 0 3 0 0 Z " fill="#6177E5" transform="translate(22,45)"/>
<path d="M0 0 C1.67542976 0.28604898 3.34385343 0.61781233 5 1 C5.33 2.32 5.66 3.64 6 5 C5.01 5.495 5.01 5.495 4 6 C3.53248212 8.35599235 3.53248212 8.35599235 3.375 11.0625 C3.30023438 11.98160156 3.22546875 12.90070313 3.1484375 13.84765625 C3.09945312 14.55792969 3.05046875 15.26820312 3 16 C2.01 15.67 1.02 15.34 0 15 C-0.19390729 12.68802845 -0.37996367 10.3753971 -0.5625 8.0625 C-0.71912109 6.13083984 -0.71912109 6.13083984 -0.87890625 4.16015625 C-0.91886719 3.11730469 -0.95882812 2.07445313 -1 1 C-0.67 0.67 -0.34 0.34 0 0 Z " fill="#718BDC" transform="translate(61,94)"/>
<path d="M0 0 C3.65316671 1.24976756 4.78065836 1.67098753 7 5 C7.14245897 7.76655324 7.18769445 10.42653306 7.125 13.1875 C7.11597656 13.93708984 7.10695313 14.68667969 7.09765625 15.45898438 C7.07412578 17.30612654 7.03825561 19.15310412 7 21 C7.66 21 8.32 21 9 21 C9 21.66 9 22.32 9 23 C6.03 23 3.06 23 0 23 C1.32 22.67 2.64 22.34 4 22 C4.1083667 19.2697611 4.18746694 16.54385457 4.25 13.8125 C4.28351563 13.04357422 4.31703125 12.27464844 4.3515625 11.48242188 C4.42243849 7.35389569 4.32932056 5.49844836 1.984375 1.94921875 C1.32953125 1.30597656 0.6746875 0.66273437 0 0 Z " fill="#576FD1" transform="translate(272,57)"/>
<path d="M0 0 C3.89639996 0.11018673 7.79186093 0.24074478 11.6875 0.375 C12.79029297 0.4059375 13.89308594 0.436875 15.02929688 0.46875 C16.6293457 0.52675781 16.6293457 0.52675781 18.26171875 0.5859375 C19.24100342 0.6173584 20.22028809 0.6487793 21.22924805 0.68115234 C24.12422801 1.01429569 26.35772167 1.79800587 29 3 C26.09330538 3.85305168 23.68951127 4.07289715 20.671875 3.87890625 C19.87265625 3.83056641 19.0734375 3.78222656 18.25 3.73242188 C17.425 3.67634766 16.6 3.62027344 15.75 3.5625 C14.90953125 3.51029297 14.0690625 3.45808594 13.203125 3.40429688 C11.1350648 3.27504311 9.0674778 3.13825726 7 3 C7 3.66 7 4.32 7 5 C6.01 4.67 5.02 4.34 4 4 C4 3.34 4 2.68 4 2 C3.01 2.33 2.02 2.66 1 3 C0.67 2.01 0.34 1.02 0 0 Z " fill="#8091E3" transform="translate(82,2)"/>
<path d="M0 0 C0.33 0.66 0.66 1.32 1 2 C0.01 2.33 -0.98 2.66 -2 3 C-2.33 5.31 -2.66 7.62 -3 10 C-5.97 9.505 -5.97 9.505 -9 9 C-9.125 6.125 -9.125 6.125 -9 3 C-6.23776722 0.23776722 -3.79293383 0.42143709 0 0 Z " fill="#596FDC" transform="translate(205,56)"/>
<path d="M0 0 C0.99 0 1.98 0 3 0 C3 2.97 3 5.94 3 9 C1.02 9.99 1.02 9.99 -1 11 C-0.67 11.66 -0.34 12.32 0 13 C-2.31 13 -4.62 13 -7 13 C-7.33 11.68 -7.66 10.36 -8 9 C-5.36 9 -2.72 9 0 9 C0 6.03 0 3.06 0 0 Z " fill="#5A70D2" transform="translate(391,54)"/>
<path d="M0 0 C2.64 0 5.28 0 8 0 C8.25 2.75 8.25 2.75 8 6 C6 8.375 6 8.375 4 10 C4 9.01 4 8.02 4 7 C2.35 7 0.7 7 -1 7 C-0.34 6.67 0.32 6.34 1 6 C0.67 5.01 0.34 4.02 0 3 C0 2.01 0 1.02 0 0 Z " fill="#5979EE" transform="translate(93,46)"/>
<path d="M0 0 C0.33 0 0.66 0 1 0 C1 2.64 1 5.28 1 8 C1.66 8.33 2.32 8.66 3 9 C-0.65851291 11.34144827 -3.72830036 11.44965259 -8 11 C-10.9375 9.375 -10.9375 9.375 -13 7 C-13.3125 3.75 -13.3125 3.75 -13 1 C-11 3 -11 3 -10.125 5.5625 C-9.2590293 8.18447843 -9.2590293 8.18447843 -6.875 8.8125 C-6.25625 8.874375 -5.6375 8.93625 -5 9 C-4.67 7.68 -4.34 6.36 -4 5 C-3.67 5.66 -3.34 6.32 -3 7 C-2.34 7 -1.68 7 -1 7 C-0.67 4.69 -0.34 2.38 0 0 Z " fill="#5D73D0" transform="translate(324,70)"/>
<path d="M0 0 C0.66 0 1.32 0 2 0 C1.68762196 2.88949684 1.35661121 4.58633099 -0.5625 6.8125 C-4.01985496 8.49685242 -7.26423625 8.57700905 -11 8 C-14 6.5 -14 6.5 -16 5 C-13 5 -13 5 -10 6 C-9.67 5.01 -9.34 4.02 -9 3 C-9 3.66 -9 4.32 -9 5 C-3.59212615 3.90213575 -3.59212615 3.90213575 0 0 Z " fill="#6278D8" transform="translate(378,73)"/>
<path d="M0 0 C0.66 0 1.32 0 2 0 C1.80839429 4.11952267 1.22298348 5.74982341 -1.5625 8.875 C-5.29186575 11.71512526 -8.45500657 11.39180978 -13 11 C-12.67 10.01 -12.34 9.02 -12 8 C-10.0390625 7.48046875 -10.0390625 7.48046875 -7.625 7.1875 C-5.18655799 6.80382896 -5.18655799 6.80382896 -3 6 C-0.85334283 3.04765553 -0.85334283 3.04765553 0 0 Z " fill="#617BCE" transform="translate(307,70)"/>
<path d="M0 0 C1.9375 0.375 1.9375 0.375 4 1 C4.33 1.66 4.66 2.32 5 3 C6.32 3 7.64 3 9 3 C8.34 4.32 7.68 5.64 7 7 C4.69 7 2.38 7 0 7 C-0.33 7.99 -0.66 8.98 -1 10 C-2.23076923 4.58461538 -2.23076923 4.58461538 -1.0625 1.625 C-0.5365625 0.820625 -0.5365625 0.820625 0 0 Z " fill="#506FFB" transform="translate(31,47)"/>
<path d="M0 0 C1.4540625 0.0309375 1.4540625 0.0309375 2.9375 0.0625 C2.9375 2.72916667 2.9375 5.39583333 2.9375 8.0625 C1.6175 7.7325 0.2975 7.4025 -1.0625 7.0625 C-1.3925 7.7225 -1.7225 8.3825 -2.0625 9.0625 C-4.0625 7.0625 -4.0625 7.0625 -4.25 4 C-3.9998913 0.08163043 -3.9998913 0.08163043 0 0 Z " fill="#4F71FA" transform="translate(63.0625,39.9375)"/>
<path d="M0 0 C0.66 0.66 1.32 1.32 2 2 C1.68862744 5.94405244 0.33091708 7.92318946 -2 11 C-2.72351427 12.98014432 -3.40265389 14.97821315 -4 17 C-4.93423645 13.98968256 -5.04449911 13.13349732 -4 10 C-4.66 9.67 -5.32 9.34 -6 9 C-6 8.01 -6 7.02 -6 6 C-5.38125 5.938125 -4.7625 5.87625 -4.125 5.8125 C-1.72238859 5.171081 -1.72238859 5.171081 -0.75 2.4375 C-0.5025 1.633125 -0.255 0.82875 0 0 Z " fill="#5873E7" transform="translate(74,61)"/>
<path d="M0 0 C2.31 0.66 4.62 1.32 7 2 C6.01 2.33 5.02 2.66 4 3 C4 3.99 4 4.98 4 6 C4.99 5.67 5.98 5.34 7 5 C7.33 5.66 7.66 6.32 8 7 C6.02 7.33 4.04 7.66 2 8 C1.67 7.01 1.34 6.02 1 5 C-0.65 4.67 -2.3 4.34 -4 4 C-2.68 2.68 -1.36 1.36 0 0 Z " fill="#5B7BF8" transform="translate(34,43)"/>
<path d="M0 0 C0.66 0 1.32 0 2 0 C1.68762196 2.88949684 1.35661121 4.58633099 -0.5625 6.8125 C-4.1419213 8.55632063 -7.04179842 8.19791008 -11 8 C-10.34 7.67 -9.68 7.34 -9 7 C-8.67 6.01 -8.34 5.02 -8 4 C-7.236875 4.0825 -6.47375 4.165 -5.6875 4.25 C-2.85583656 4.30342071 -2.85583656 4.30342071 -1.3125 2 C-0.879375 1.34 -0.44625 0.68 0 0 Z " fill="#687DD1" transform="translate(189,73)"/>
<path d="M0 0 C0.33 0 0.66 0 1 0 C0.67 2.31 0.34 4.62 0 7 C0.66 6.67 1.32 6.34 2 6 C2 5.01 2 4.02 2 3 C2.99 2.67 3.98 2.34 5 2 C5.33 2.33 5.66 2.66 6 3 C6.66 2.34 7.32 1.68 8 1 C8 2.98 8 4.96 8 7 C4.52674819 8.1577506 1.63932552 8.06866652 -2 8 C-1.33333333 5.33333333 -0.66666667 2.66666667 0 0 Z " fill="#5C76E7" transform="translate(184,62)"/>
<path d="M0 0 C1.2065625 0.0309375 1.2065625 0.0309375 2.4375 0.0625 C2.1075 1.3825 1.7775 2.7025 1.4375 4.0625 C0.65375 4.206875 -0.13 4.35125 -0.9375 4.5 C-3.52671018 4.94048925 -3.52671018 4.94048925 -5.5625 6.0625 C-7.59394641 5.12803465 -9.59783587 4.13025224 -11.5625 3.0625 C-8.29183122 0.88205415 -7.30831273 0.96392598 -3.5625 1.0625 C-2.5625 0.0625 -2.5625 0.0625 0 0 Z " fill="#4969F9" transform="translate(57.5625,51.9375)"/>
<path d="M0 0 C3.96 0 7.92 0 12 0 C12 0.99 12 1.98 12 3 C11.34 3 10.68 3 10 3 C9.67 3.66 9.34 4.32 9 5 C8.67 4.01 8.34 3.02 8 2 C6.35 1.67 4.7 1.34 3 1 C3 5.62 3 10.24 3 15 C2.67 15 2.34 15 2 15 C2 11.04 2 7.08 2 3 C1.34 3 0.68 3 0 3 C0 2.01 0 1.02 0 0 Z " fill="#586FD3" transform="translate(154,48)"/>
<path d="M0 0 C0.33 0 0.66 0 1 0 C1.16894443 1.74978157 1.33506309 3.49983612 1.5 5.25 C1.5928125 6.22453125 1.685625 7.1990625 1.78125 8.203125 C2.08857868 12.13254164 2 16.06069083 2 20 C-0.18110231 17.34474502 -1.47983495 15.40471669 -2 12 C-1.76408695 9.90661063 -1.44529026 7.82157082 -1.0625 5.75 C-0.86785156 4.67234375 -0.67320312 3.5946875 -0.47265625 2.484375 C-0.31667969 1.66453125 -0.16070312 0.8446875 0 0 Z " fill="#5A70D4" transform="translate(284,55)"/>
<path d="M0 0 C1.65 0.33 3.3 0.66 5 1 C4.67 2.32 4.34 3.64 4 5 C4.99 5 5.98 5 7 5 C6.67 5.99 6.34 6.98 6 8 C4.68 7.67 3.36 7.34 2 7 C2 6.34 2 5.68 2 5 C1.01 4.67 0.02 4.34 -1 4 C-0.67 2.68 -0.34 1.36 0 0 Z " fill="#7692EE" transform="translate(79,115)"/>
<path d="M0 0 C-2.05233685 2.2477975 -3.00667261 3.0022242 -6 4 C-6.33 8.62 -6.66 13.24 -7 18 C-7.33 18 -7.66 18 -8 18 C-8 13.38 -8 8.76 -8 4 C-8.66 4 -9.32 4 -10 4 C-7.75282684 -0.49434631 -4.47478037 -0.19887913 0 0 Z " fill="#5E79D2" transform="translate(355,57)"/>
<path d="M0 0 C1.134375 0.020625 2.26875 0.04125 3.4375 0.0625 C3.4375 1.0525 3.4375 2.0425 3.4375 3.0625 C1.4575 3.0625 -0.5225 3.0625 -2.5625 3.0625 C-2.5625 7.0225 -2.5625 10.9825 -2.5625 15.0625 C-2.8925 15.0625 -3.2225 15.0625 -3.5625 15.0625 C-3.75640729 12.75052845 -3.94246367 10.4378971 -4.125 8.125 C-4.28162109 6.19333984 -4.28162109 6.19333984 -4.44140625 4.22265625 C-4.48136719 3.17980469 -4.52132812 2.13695312 -4.5625 1.0625 C-3.5625 0.0625 -3.5625 0.0625 0 0 Z " fill="#5C7CDC" transform="translate(246.5625,56.9375)"/>
<path d="M0 0 C1.32 0 2.64 0 4 0 C4 2.31 4 4.62 4 7 C2.35 6.67 0.7 6.34 -1 6 C-1.042721 4.33388095 -1.04063832 2.66617115 -1 1 C-0.67 0.67 -0.34 0.34 0 0 Z " fill="#5771E4" transform="translate(314,58)"/>
<path d="M0 0 C1.65 0.33 3.3 0.66 5 1 C4.8125 2.875 4.8125 2.875 4 5 C1.4375 6.25 1.4375 6.25 -1 7 C-1.33 6.34 -1.66 5.68 -2 5 C-1.0625 2.375 -1.0625 2.375 0 0 Z " fill="#5570FA" transform="translate(374,60)"/>
<path d="M0 0 C0.99 0 1.98 0 3 0 C4.03013277 1.64821244 5.03114628 3.31503702 6 5 C6.66 5 7.32 5 8 5 C8.33 6.65 8.66 8.3 9 10 C7.68 10 6.36 10 5 10 C3.33333333 6.66666667 1.66666667 3.33333333 0 0 Z " fill="#7C94E6" transform="translate(104,35)"/>
<path d="M0 0 C0.33 0.99 0.66 1.98 1 3 C0.38511719 3.24234375 -0.22976563 3.4846875 -0.86328125 3.734375 C-6.92919969 6.10631404 -6.92919969 6.10631404 -11 11 C-11.66 10.67 -12.32 10.34 -13 10 C-5.02739726 -0 -5.02739726 -0 0 0 Z " fill="#8594E9" transform="translate(16,5)"/>
<path d="M0 0 C0.33 0 0.66 0 1 0 C1.12375 1.11375 1.2475 2.2275 1.375 3.375 C1.6465813 7.03103677 1.6465813 7.03103677 4 9 C4.103125 9.66 4.20625 10.32 4.3125 11 C4.539375 11.66 4.76625 12.32 5 13 C7.49034386 14.29660434 7.49034386 14.29660434 10 15 C10 15.33 10 15.66 10 16 C7.8125 16.375 7.8125 16.375 5 16 C1.71739695 13.22802409 0.19923174 11.67354663 -0.3125 7.375 C-0.3125 4.89680692 -0.21946888 2.46780567 0 0 Z " fill="#546EDF" transform="translate(170,64)"/>
<path d="M0 0 C0.33 0 0.66 0 1 0 C1.144375 0.928125 1.28875 1.85625 1.4375 2.8125 C1.92100111 6.00725111 1.92100111 6.00725111 3 9 C2.67 9.33 2.34 9.66 2 10 C1.76346477 12.52596259 1.57826308 15.03107207 1.4375 17.5625 C1.39431641 18.27341797 1.35113281 18.98433594 1.30664062 19.71679688 C1.20028223 21.47761912 1.09961154 23.2387832 1 25 C0.67 25 0.34 25 0 25 C0 16.75 0 8.5 0 0 Z " fill="#5771C2" transform="translate(264,51)"/>
<path d="M0 0 C1.875 1.5625 1.875 1.5625 3 3 C2.67 3.66 2.34 4.32 2 5 C1.54625 4.505 1.0925 4.01 0.625 3.5 C-0.87635519 1.77390663 -0.87635519 1.77390663 -3 2 C-3.33 3.65 -3.66 5.3 -4 7 C-4.268125 6.401875 -4.53625 5.80375 -4.8125 5.1875 C-5.98493467 3.02775192 -7.19369282 1.64209744 -9 0 C-5.45026831 -1.1832439 -3.60040463 -0.90010116 0 0 Z " fill="#5D71D2" transform="translate(212,58)"/>
<path d="M0 0 C0.33 0.66 0.66 1.32 1 2 C-1.88913288 6.7585718 -6.13927736 8.56963868 -11 11 C-11.66 10.34 -12.32 9.68 -13 9 C-12.31292969 8.60167969 -11.62585938 8.20335938 -10.91796875 7.79296875 C-10.01691406 7.26316406 -9.11585937 6.73335938 -8.1875 6.1875 C-7.29417969 5.66542969 -6.40085937 5.14335938 -5.48046875 4.60546875 C-3.33168013 3.21467801 -1.70638383 1.8877934 0 0 Z " fill="#7E8CD9" transform="translate(96,105)"/>
<path d="M0 0 C1.32 1.32 2.64 2.64 4 4 C3.67 4.99 3.34 5.98 3 7 C1 6 1 6 0 5 C0 5.66 0 6.32 0 7 C-0.99 6.67 -1.98 6.34 -3 6 C-2.625 3.5625 -2.625 3.5625 -2 1 C-1.34 0.67 -0.68 0.34 0 0 Z " fill="#788FF3" transform="translate(119,95)"/>
<path d="M0 0 C0 1.32 0 2.64 0 4 C2.97 4 5.94 4 9 4 C9 4.33 9 4.66 9 5 C3.47513839 6.5582943 -0.92795701 5.42390265 -6 3 C-6.33 2.34 -6.66 1.68 -7 1 C-4.50935112 0.31292445 -2.62113708 0 0 0 Z " fill="#5B76E0" transform="translate(79,57)"/>
<path d="M0 0 C1.175625 0.4640625 1.175625 0.4640625 2.375 0.9375 C6.28292254 2.08292557 9.87787156 2.41422251 13.92578125 2.65625 C14.61027344 2.7696875 15.29476562 2.883125 16 3 C16.33 3.66 16.66 4.32 17 5 C16.0625 7.125 16.0625 7.125 15 9 C14.34 8.67 13.68 8.34 13 8 C13.33 6.68 13.66 5.36 14 4 C13.40832031 4.02320313 12.81664063 4.04640625 12.20703125 4.0703125 C7.66198041 4.17411464 4.14059941 4.13708357 0 2 C0 1.34 0 0.68 0 0 Z " fill="#6477CC" transform="translate(87,42)"/>
<path d="M0 0 C-1.32 0.99 -2.64 1.98 -4 3 C-3.01 3.33 -2.02 3.66 -1 4 C-1.33 4.66 -1.66 5.32 -2 6 C-4.475 5.01 -4.475 5.01 -7 4 C-7 3.34 -7 2.68 -7 2 C-9.475 3.485 -9.475 3.485 -12 5 C-9.28085049 -1.02097391 -6.0998139 -0.0983841 0 0 Z " fill="#5E78E1" transform="translate(85,41)"/>
<path d="M0 0 C0 3.96 0 7.92 0 12 C-3.29518605 8.70481395 -3.81103326 7.5352017 -4 3 C-1.8 0 -1.8 0 0 0 Z " fill="#6786FC" transform="translate(63,70)"/>
<path d="M0 0 C1.4540625 0.0309375 1.4540625 0.0309375 2.9375 0.0625 C2.9375 1.7125 2.9375 3.3625 2.9375 5.0625 C2.6075 3.7425 2.2775 2.4225 1.9375 1.0625 C0.6175 1.0625 -0.7025 1.0625 -2.0625 1.0625 C-2.18625 1.64 -2.31 2.2175 -2.4375 2.8125 C-3.06898824 5.08585767 -3.95108191 6.9878529 -5.0625 9.0625 C-6.0525 8.7325 -7.0425 8.4025 -8.0625 8.0625 C-7.7325 7.4025 -7.4025 6.7425 -7.0625 6.0625 C-6.4025 6.0625 -5.7425 6.0625 -5.0625 6.0625 C-4.918125 5.258125 -4.77375 4.45375 -4.625 3.625 C-3.8465 0.0785 -3.8465 0.0785 0 0 Z " fill="#5B70D0" transform="translate(241.0625,50.9375)"/>
<path d="M0 0 C0.33 0 0.66 0 1 0 C1.66 1.98 2.32 3.96 3 6 C5.31 6 7.62 6 10 6 C10 6.66 10 7.32 10 8 C5.07872966 8.16682272 1.49656104 8.24828052 -3 6 C-2.01 4.02 -1.02 2.04 0 0 Z " fill="#5169DE" transform="translate(208,72)"/>
<path d="M0 0 C5 1.66666667 10 3.33333333 15 5 C15 5.33 15 5.66 15 6 C8.6902455 6.65726609 4.95810778 4.92785162 0 1 C0 0.67 0 0.34 0 0 Z " fill="#7F8DDE" transform="translate(37,112)"/>
<path d="M0 0 C0.66 0.33 1.32 0.66 2 1 C1.6875 3.375 1.6875 3.375 1 6 C-2.4352048 8.29013653 -3.985331 8.17842973 -8 8 C-8 7.67 -8 7.34 -8 7 C-6.35 7 -4.7 7 -3 7 C-2.690625 6.030625 -2.38125 5.06125 -2.0625 4.0625 C-1 1 -1 1 0 0 Z " fill="#7183CA" transform="translate(251,73)"/>
<path d="M0 0 C2.9719385 1.12451727 5.33440687 2.22293791 8 4 C8 4.99 8 5.98 8 7 C8.66 7 9.32 7 10 7 C10.33 8.32 10.66 9.64 11 11 C6.86378916 7.6189962 3.18683431 4.33409466 0 0 Z " fill="#8090DD" transform="translate(93,23)"/>
<path d="M0 0 C0 0.99 0 1.98 0 3 C-1.32 3 -2.64 3 -4 3 C-4.33 3.99 -4.66 4.98 -5 6 C-5 4.68 -5 3.36 -5 2 C-6.98 2 -8.96 2 -11 2 C-11 1.67 -11 1.34 -11 1 C-7.26562152 0.12132271 -3.83225427 -0.08912219 0 0 Z " fill="#6479D8" transform="translate(324,67)"/>
<path d="M0 0 C0.99 0.66 1.98 1.32 3 2 C3.1875 4.625 3.1875 4.625 3 7 C2.01 7 1.02 7 0 7 C-0.99 5.02 -1.98 3.04 -3 1 C-2.01 0.67 -1.02 0.34 0 0 Z " fill="#5270DE" transform="translate(305,51)"/>
<path d="M0 0 C2.31 0.33 4.62 0.66 7 1 C7.33 1.99 7.66 2.98 8 4 C5.69 4 3.38 4 1 4 C0.67 2.68 0.34 1.36 0 0 Z " fill="#4D65DA" transform="translate(383,63)"/>
<path d="M0 0 C0.99 0 1.98 0 3 0 C3 1.98 3 3.96 3 6 C1.35 6 -0.3 6 -2 6 C-1.34 4.02 -0.68 2.04 0 0 Z " fill="#516EF8" transform="translate(198,59)"/>
<path d="M0 0 C1.32 0.66 2.64 1.32 4 2 C3.23997083 3.31878578 2.46656347 4.6298684 1.6875 5.9375 C1.25824219 6.66839844 0.82898438 7.39929687 0.38671875 8.15234375 C-1 10 -1 10 -4 11 C-3.39816251 8.97954558 -2.72693904 6.97888961 -2 5 C-1.34 4.67 -0.68 4.34 0 4 C0 2.68 0 1.36 0 0 Z " fill="#798FE6" transform="translate(19,32)"/>
<path d="M0 0 C1 2 1 2 0.44140625 4.1640625 C0.15136719 4.97617187 -0.13867188 5.78828125 -0.4375 6.625 C-0.72496094 7.44226562 -1.01242188 8.25953125 -1.30859375 9.1015625 C-1.53675781 9.72804688 -1.76492188 10.35453125 -2 11 C-2.99 10.67 -3.98 10.34 -5 10 C-4.38545304 6.00544473 -2.29353263 3.25533664 0 0 Z " fill="#7089DE" transform="translate(16,42)"/>
<path d="M0 0 C0 1.98 0 3.96 0 6 C-0.99 6.495 -0.99 6.495 -2 7 C-2 6.34 -2 5.68 -2 5 C-2.99 4.67 -3.98 4.34 -5 4 C-5 3.01 -5 2.02 -5 1 C-2 0 -2 0 0 0 Z " fill="#556EF4" transform="translate(101,46)"/>
<path d="M0 0 C0.5534764 2.07553648 1 3.84365964 1 6 C0.01 6 -0.98 6 -2 6 C-2 6.66 -2 7.32 -2 8 C-3.32 8.33 -4.64 8.66 -6 9 C-5.34 7.68 -4.68 6.36 -4 5 C-3.34 5 -2.68 5 -2 5 C-1.34 3.35 -0.68 1.7 0 0 Z " fill="#7D93E2" transform="translate(105,95)"/>
<path d="M0 0 C0.33 0.66 0.66 1.32 1 2 C-0.98 2.66 -2.96 3.32 -5 4 C-5 3.34 -5 2.68 -5 2 C-5.99 1.67 -6.98 1.34 -8 1 C-5.29120665 -0.35439668 -2.99066732 -0.06501451 0 0 Z " fill="#607ABF" transform="translate(300,47)"/>
<path d="M0 0 C1.67542976 0.28604898 3.34385343 0.61781233 5 1 C5 1.99 5 2.98 5 4 C3.35 4.33 1.7 4.66 0 5 C-0.5625 3.0625 -0.5625 3.0625 -1 1 C-0.67 0.67 -0.34 0.34 0 0 Z " fill="#7493F6" transform="translate(61,94)"/>
<path d="M0 0 C0.99 0 1.98 0 3 0 C3 3.3 3 6.6 3 10 C2.01 9.67 1.02 9.34 0 9 C0.66 7.02 1.32 5.04 2 3 C1.34 3 0.68 3 0 3 C0 2.01 0 1.02 0 0 Z " fill="#516FF4" transform="translate(66,74)"/>
<path d="M0 0 C0.66 0 1.32 0 2 0 C1.6875 2.875 1.6875 2.875 1 6 C0.01 6.66 -0.98 7.32 -2 8 C-1.125 1.125 -1.125 1.125 0 0 Z " fill="#6C83CC" transform="translate(307,70)"/>
<path d="M0 0 C1.32 0 2.64 0 4 0 C4.33 0.99 4.66 1.98 5 3 C1.25 4.125 1.25 4.125 -1 3 C-1.33 3.66 -1.66 4.32 -2 5 C-2 4.01 -2 3.02 -2 2 C-1.34 2 -0.68 2 0 2 C0 1.34 0 0.68 0 0 Z " fill="#4A67FD" transform="translate(66,62)"/>
<path d="M0 0 C2.31 0 4.62 0 7 0 C7.66 1.65 8.32 3.3 9 5 C5.54074837 3.7508258 2.85306797 2.32472205 0 0 Z " fill="#7E8FE9" transform="translate(84,18)"/>
<path d="M0 0 C3 3.625 3 3.625 3 7 C1.02 7 -0.96 7 -3 7 C-3 6.34 -3 5.68 -3 5 C-2.34 4.67 -1.68 4.34 -1 4 C-0.34786708 1.97536745 -0.34786708 1.97536745 0 0 Z " fill="#5C78FC" transform="translate(361,63)"/>
<path d="M0 0 C2.4375 0.375 2.4375 0.375 5 1 C5.33 1.66 5.66 2.32 6 3 C4.68 2.67 3.36 2.34 2 2 C1.67 3.98 1.34 5.96 1 8 C0.67 8 0.34 8 0 8 C0 5.36 0 2.72 0 0 Z " fill="#5469DE" transform="translate(324,57)"/>
<path d="M0 0 C0.33 0 0.66 0 1 0 C1 2.64 1 5.28 1 8 C1.66 8.33 2.32 8.66 3 9 C1.02 9.33 -0.96 9.66 -3 10 C-2.34 9.67 -1.68 9.34 -1 9 C-0.53348793 6.87423218 -0.53348793 6.87423218 -0.375 4.4375 C-0.30023438 3.61121094 -0.22546875 2.78492187 -0.1484375 1.93359375 C-0.09945313 1.29550781 -0.05046875 0.65742187 0 0 Z " fill="#567DD5" transform="translate(324,70)"/>
<path d="M0 0 C0.33 0.99 0.66 1.98 1 3 C2.65 2.34 4.3 1.68 6 1 C5.25 2.9375 5.25 2.9375 4 5 C1.875 5.75 1.875 5.75 0 6 C0 4.02 0 2.04 0 0 Z " fill="#4F70F1" transform="translate(271,61)"/>
<path d="M0 0 C3.465 1.98 3.465 1.98 7 4 C7 4.99 7 5.98 7 7 C6.34 7 5.68 7 5 7 C5 6.01 5 5.02 5 4 C4.360625 3.896875 3.72125 3.79375 3.0625 3.6875 C2.381875 3.460625 1.70125 3.23375 1 3 C0.67 2.01 0.34 1.02 0 0 Z " fill="#8798E9" transform="translate(112,6)"/>
<path d="" fill="#FFFFFF" transform="translate(0,0)"/>
<path d="" fill="#FFFFFF" transform="translate(0,0)"/>
<path d="" fill="#FFFFFF" transform="translate(0,0)"/>
<path d="" fill="#FFFFFF" transform="translate(0,0)"/>
<path d="" fill="#FFFFFF" transform="translate(0,0)"/>
<path d="" fill="#FFFFFF" transform="translate(0,0)"/>
<path d="" fill="#FFFFFF" transform="translate(0,0)"/>
<path d="" fill="#FFFFFF" transform="translate(0,0)"/>
<path d="" fill="#FFFFFF" transform="translate(0,0)"/>
<path d="" fill="#FFFFFF" transform="translate(0,0)"/>
<path d="" fill="#FFFFFF" transform="translate(0,0)"/>
<path d="" fill="#FFFFFF" transform="translate(0,0)"/>
<path d="" fill="#FFFFFF" transform="translate(0,0)"/>
<path d="" fill="#FFFFFF" transform="translate(0,0)"/>
<path d="" fill="#FFFFFF" transform="translate(0,0)"/>
<path d="" fill="#FFFFFF" transform="translate(0,0)"/>
<path d="" fill="#FFFFFF" transform="translate(0,0)"/>
<path d="" fill="#FFFFFF" transform="translate(0,0)"/>
<path d="" fill="#FFFFFF" transform="translate(0,0)"/>
<path d="" fill="#FFFFFF" transform="translate(0,0)"/>
<path d="" fill="#FFFFFF" transform="translate(0,0)"/>
<path d="" fill="#FFFFFF" transform="translate(0,0)"/>
<path d="" fill="#FEFFFF" transform="translate(0,0)"/>
<path d="" fill="#FFFFFF" transform="translate(0,0)"/>
<path d="" fill="#FFFFFF" transform="translate(0,0)"/>
<path d="" fill="#FFFFFF" transform="translate(0,0)"/>
<path d="" fill="#FFFFFF" transform="translate(0,0)"/>
<path d="" fill="#FFFFFF" transform="translate(0,0)"/>
<path d="" fill="#FFFFFF" transform="translate(0,0)"/>
<path d="" fill="#FFFFFF" transform="translate(0,0)"/>
<path d="" fill="#FFFFFF" transform="translate(0,0)"/>
<path d="" fill="#FFFFFF" transform="translate(0,0)"/>
<path d="" fill="#FFFFFF" transform="translate(0,0)"/>
<path d="" fill="#FFFFFF" transform="translate(0,0)"/>
<path d="" fill="#FFFFFF" transform="translate(0,0)"/>
<path d="" fill="#FFFFFF" transform="translate(0,0)"/>
<path d="" fill="#FFFFFF" transform="translate(0,0)"/>
<path d="" fill="#FFFFFF" transform="translate(0,0)"/>
<path d="" fill="#FFFFFF" transform="translate(0,0)"/>
<path d="" fill="#FFFFFF" transform="translate(0,0)"/>
<path d="" fill="#FFFFFF" transform="translate(0,0)"/>
<path d="" fill="#FFFFFF" transform="translate(0,0)"/>
<path d="" fill="#FFFFFF" transform="translate(0,0)"/>
<path d="" fill="#FFFFFF" transform="translate(0,0)"/>
<path d="" fill="#FFFFFF" transform="translate(0,0)"/>
<path d="" fill="#FFFFFF" transform="translate(0,0)"/>
<path d="" fill="#FFFFFF" transform="translate(0,0)"/>
<path d="" fill="#FFFFFF" transform="translate(0,0)"/>
<path d="" fill="#FFFFFF" transform="translate(0,0)"/>
<path d="" fill="#FFFFFF" transform="translate(0,0)"/>
<path d="" fill="#FFFFFF" transform="translate(0,0)"/>
<path d="" fill="#FFFFFF" transform="translate(0,0)"/>
<path d="" fill="#FFFFFF" transform="translate(0,0)"/>
<path d="" fill="#FFFFFF" transform="translate(0,0)"/>
<path d="" fill="#FFFFFF" transform="translate(0,0)"/>
<path d="" fill="#FFFFFF" transform="translate(0,0)"/>
<path d="" fill="#FFFFFF" transform="translate(0,0)"/>
<path d="" fill="#FFFFFF" transform="translate(0,0)"/>
<path d="" fill="#FFFFFF" transform="translate(0,0)"/>
<path d="" fill="#FFFFFF" transform="translate(0,0)"/>
<path d="" fill="#FFFFFF" transform="translate(0,0)"/>
<path d="" fill="#FFFFFF" transform="translate(0,0)"/>
<path d="" fill="#FFFFFF" transform="translate(0,0)"/>
<path d="" fill="#FFFFFF" transform="translate(0,0)"/>
<path d="" fill="#FFFFFF" transform="translate(0,0)"/>
<path d="" fill="#FFFFFF" transform="translate(0,0)"/>
<path d="" fill="#FFFFFF" transform="translate(0,0)"/>
<path d="" fill="#FFFFFF" transform="translate(0,0)"/>
<path d="" fill="#FFFFFF" transform="translate(0,0)"/>
<path d="" fill="#FFFFFF" transform="translate(0,0)"/>
<path d="" fill="#FFFFFF" transform="translate(0,0)"/>
<path d="" fill="#FFFFFF" transform="translate(0,0)"/>
</svg>
